<svg t="1697119986965" class="icon" viewBox="0 0 1241 1024" version="1.1" xmlns="http://www.w3.org/2000/svg" p-id="1265" width="16" height="16"><path d="M93.090909 0l93.090909 31.030303 18.183758 17.066667A62.060606 62.060606 0 0 0 264.036848 93.090909h278.714182a62.060606 62.060606 0 0 0 59.671273-44.993939L620.606061 31.030303l93.090909-31.030303a93.090909 93.090909 0 0 1 93.090909 93.090909v837.818182a93.090909 93.090909 0 0 1-93.090909 93.090909H93.090909a93.090909 93.090909 0 0 1-93.090909-93.090909V93.090909a93.090909 93.090909 0 0 1 93.090909-93.090909z m186.181818 0a31.030303 31.030303 0 1 0 0 62.060606h248.242425a31.030303 31.030303 0 1 0 0-62.060606H279.272727z" fill="#C1D0FF" p-id="1266"></path><path d="M1057.698909 390.733576a173.397333 173.397333 0 0 1-75.838061 143.515151l24.979394 65.070546c6.081939 15.794424 21.193697 26.189576 38.074182 26.189575h114.719031A81.609697 81.609697 0 0 1 1241.212121 707.149576v142.925576H527.515152V707.180606a81.609697 81.609697 0 0 1 81.578666-81.671758h108.606061c17.37697 0 32.830061-11.046788 38.508606-27.492848l23.800242-68.732121a173.335273 173.335273 0 0 1-68.980363-138.550303C711.028364 294.912 788.635152 217.212121 884.363636 217.212121a173.428364 173.428364 0 0 1 173.335273 173.521455zM578.497939 890.91103a51.013818 51.013818 0 0 0 0 102.058667h611.731394a51.013818 51.013818 0 0 0 0-102.089697H578.497939z" fill="#0F62FE" p-id="1267"></path><path d="M93.090909 0h47.507394c29.602909 0 55.637333 19.611152 63.767273 48.09697A62.060606 62.060606 0 0 0 264.036848 93.090909h278.714182a62.060606 62.060606 0 0 0 59.671273-44.993939A66.280727 66.280727 0 0 1 666.220606 0H713.69697a93.090909 93.090909 0 0 1 93.090909 93.090909v837.818182a93.090909 93.090909 0 0 1-93.090909 93.090909H93.090909a93.090909 93.090909 0 0 1-93.090909-93.090909V93.090909a93.090909 93.090909 0 0 1 93.090909-93.090909z m186.181818 0a31.030303 31.030303 0 1 0 0 62.060606h248.242425a31.030303 31.030303 0 1 0 0-62.060606H279.272727z" fill="#E8E8E8" fill-opacity=".1" p-id="1268"></path><path d="M264.036848 93.090909a62.060606 62.060606 0 0 1-59.671272-44.993939A66.280727 66.280727 0 0 0 140.567273 0H93.090909a93.090909 93.090909 0 0 0-93.090909 93.090909v837.818182a93.090909 93.090909 0 0 0 93.090909 93.090909h620.606061a93.090909 93.090909 0 0 0 93.090909-93.090909V93.090909a93.090909 93.090909 0 0 0-93.090909-93.090909h-47.507394c-29.602909 0-55.637333 19.611152-63.767273 48.09697A62.060606 62.060606 0 0 1 542.75103 93.090909H264.067879zM140.567273 31.030303c15.763394 0 29.602909 10.426182 33.916121 25.56897A93.090909 93.090909 0 0 0 264.036848 124.121212h278.714182a93.090909 93.090909 0 0 0 89.522425-67.521939c4.344242-15.142788 18.152727-25.56897 33.916121-25.56897H713.69697a62.060606 62.060606 0 0 1 62.060606 62.060606v837.818182a62.060606 62.060606 0 0 1-62.060606 62.060606H93.090909a62.060606 62.060606 0 0 1-62.060606-62.060606V93.090909a62.060606 62.060606 0 0 1 62.060606-62.060606h47.507394zM248.242424 31.030303a31.030303 31.030303 0 0 1 31.030303-31.030303h248.242425a31.030303 31.030303 0 1 1 0 62.060606H279.272727a31.030303 31.030303 0 0 1-31.030303-31.030303z" fill="#FFFFFF" fill-opacity=".6" p-id="1269"></path><path d="M124.121212 310.30303c0-17.128727 16.321939-31.030303 36.429576-31.030303h485.686303C666.344727 279.272727 682.666667 293.174303 682.666667 310.30303s-16.321939 31.030303-36.429576 31.030303H160.550788C140.443152 341.333333 124.121212 327.431758 124.121212 310.30303z" fill="#FFFFFF" p-id="1270"></path><path d="M124.121212 527.515152c0-17.128727 16.321939-31.030303 36.429576-31.030304h485.686303c20.107636 0 36.429576 13.901576 36.429576 31.030304s-16.321939 31.030303-36.429576 31.030303H160.550788C140.443152 558.545455 124.121212 544.643879 124.121212 527.515152z" fill="#FFFFFF" p-id="1271"></path><path d="M124.121212 744.727273c0-17.128727 16.321939-31.030303 36.429576-31.030303h485.686303c20.107636 0 36.429576 13.901576 36.429576 31.030303s-16.321939 31.030303-36.429576 31.030303H160.550788C140.443152 775.757576 124.121212 761.856 124.121212 744.727273z" fill="#FFFFFF" p-id="1272"></path></svg>